<svg width="432" height="39" viewBox="0 0 432 39" fill="none" xmlns="http://www.w3.org/2000/svg">
<path d="M16.3184 28.4492C22.959 28.4492 26.5234 24.9922 27.0117 18.0781C27.2461 15.5977 26.7578 13.7812 25.5469 12.6289C24.3359 11.4766 22.3047 10.8906 19.4531 10.8711H15.9082L13.4473 28.4492H16.3184ZM20.4492 1.4082C26.5625 1.4082 31.1523 2.82422 34.2188 5.65625C37.2852 8.48828 38.6426 12.4727 38.291 17.6094C37.8418 23.9375 35.6641 28.918 31.7578 32.5508C27.8516 36.1836 22.666 38 16.2012 38H0.908203L6.06445 1.4082H20.4492Z" fill="white"/>
<path d="M57.0398 1.4082L51.9422 38H40.7215L45.8777 1.4082H57.0398Z" fill="white"/>
<path d="M82.8492 23L81.1793 14.2402C80.9059 12.873 80.7105 11.6133 80.5934 10.4609H80.5055C80.2711 11.2617 79.734 12.5996 78.8941 14.4746L74.8805 23H82.8492ZM84.607 32.5508H70.3102L67.732 38H55.7496L74.0309 1.4082H89.3531L97.3219 38H85.6324L84.607 32.5508Z" fill="white"/>
<path d="M145.748 38H134.586L136.637 20.832L136.989 19.0449L126.852 38H120.319L115.455 19.0449L112.467 38H101.305L107.897 1.4082H120.26L124.948 18.752C125.338 20.2363 125.553 21.291 125.592 21.916C125.905 21.1543 126.403 20.0996 127.086 18.752L136.871 1.4082H149.352L145.748 38Z" fill="white"/>
<path d="M178.472 12.9805C177.398 11.5352 175.65 10.8125 173.228 10.8125C170.806 10.8125 168.823 11.5938 167.28 13.1562C165.738 14.7188 164.79 16.9648 164.439 19.8945C163.794 25.5977 165.894 28.4492 170.738 28.4492C173.14 28.4492 175.132 27.6582 176.714 26.0762C178.296 24.4941 179.253 22.2773 179.585 19.4258C179.917 16.5742 179.546 14.4258 178.472 12.9805ZM159.986 5.59766C163.677 2.39453 168.511 0.792969 174.488 0.792969C180.464 0.792969 184.898 2.45312 187.788 5.77344C190.679 9.09375 191.704 13.7617 190.864 19.7773C190.005 25.793 187.739 30.4316 184.068 33.6934C180.376 36.916 175.542 38.5273 169.566 38.5273C163.589 38.5273 159.146 36.8574 156.236 33.5176C153.345 30.1777 152.329 25.4902 153.189 19.4551C154.048 13.4199 156.314 8.80078 159.986 5.59766Z" fill="white"/>
<path d="M228.451 38H218.432L207.094 19.4551L204.574 38H193.354L198.51 1.4082H208.529L219.867 19.9531C219.945 18.8398 220.062 17.7363 220.219 16.6426L222.387 1.4082H233.549L228.451 38Z" fill="white"/>
<path d="M250.921 28.4492C257.561 28.4492 261.126 24.9922 261.614 18.0781C261.848 15.5977 261.36 13.7812 260.149 12.6289C258.938 11.4766 256.907 10.8906 254.055 10.8711H250.511L248.05 28.4492H250.921ZM255.052 1.4082C261.165 1.4082 265.755 2.82422 268.821 5.65625C271.888 8.48828 273.245 12.4727 272.893 17.6094C272.444 23.9375 270.266 28.918 266.36 32.5508C262.454 36.1836 257.268 38 250.804 38H235.511L240.667 1.4082H255.052Z" fill="white"/>
<path d="M314.67 1.4082L309.572 38H298.351L300.226 24.7285H288.39L286.545 38H275.324L280.48 1.4082H291.642L289.767 14.5332H301.662L303.507 1.4082H314.67Z" fill="white"/>
<path d="M331.543 10.9883L330.928 15.4414H345.079L343.819 24.2012H329.668L329.082 28.5664H346.221L344.903 38H316.661L321.817 1.4082H349.59L348.272 10.9883H331.543Z" fill="white"/>
<path d="M375.898 23L374.228 14.2402C373.954 12.873 373.759 11.6133 373.642 10.4609H373.554C373.32 11.2617 372.782 12.5996 371.943 14.4746L367.929 23H375.898ZM377.655 32.5508H363.359L360.78 38H348.798L367.079 1.4082H382.402L390.37 38H378.681L377.655 32.5508Z" fill="white"/>
<path d="M409.822 28.4492C416.463 28.4492 420.027 24.9922 420.516 18.0781C420.75 15.5977 420.262 13.7812 419.051 12.6289C417.84 11.4766 415.809 10.8906 412.957 10.8711H409.412L406.951 28.4492H409.822ZM413.953 1.4082C420.066 1.4082 424.656 2.82422 427.723 5.65625C430.789 8.48828 432.146 12.4727 431.795 17.6094C431.346 23.9375 429.168 28.918 425.262 32.5508C421.355 36.1836 416.17 38 409.705 38H394.412L399.568 1.4082H413.953Z" fill="white"/>
</svg>
