<svg width="239" height="39" viewBox="0 0 239 39" fill="none" xmlns="http://www.w3.org/2000/svg">
<path d="M21.3496 0.792969C26.2324 0.792969 30.8515 1.93555 35.207 4.2207L31.0468 12.4531C27.0234 11.3594 23.7031 10.8125 21.0859 10.8125C18.4687 10.8125 16.2812 11.7109 14.5234 13.5078C12.7851 15.2852 11.7988 17.7656 11.5644 20.9492C11.3691 23.2734 11.789 25.1094 12.8242 26.457C13.8593 27.7852 15.4804 28.4492 17.6875 28.4492C20.9687 28.4492 24.9629 27.6094 29.6699 25.9297L32.5703 34.5137C27.0625 37.1895 21.6132 38.5273 16.2226 38.5273C10.832 38.5273 6.7109 37.0234 3.85934 34.0156C1.02731 30.9883 -0.164097 26.7207 0.285121 21.2129C0.675746 14.9238 2.77536 9.95312 6.58395 6.30078C10.3925 2.62891 15.3144 0.792969 21.3496 0.792969Z" fill="white"/>
<path d="M55.5672 19.8945C59.0828 19.8945 60.8992 18.1465 61.0164 14.6504C61.0945 13.4199 60.7136 12.4629 59.8738 11.7793C59.034 11.0957 57.7742 10.7539 56.0945 10.7539H51.5535L50.2937 19.8945H55.5672ZM56.8855 1.4082C62.4519 1.4082 66.4363 2.50195 68.8386 4.68945C71.2605 6.85742 72.3347 10.0996 72.0613 14.416C71.7879 20.373 69.2879 24.5527 64.5613 26.9551L70.3328 37.1504L70.0984 38H58.2039L53.6922 28.7715L49.034 28.8301L47.7742 38H36.5535L41.7097 1.4082H56.8855Z" fill="white"/>
<path d="M113.076 1.4082L110.38 20.2461C109.502 26.4766 107.49 31.0859 104.345 34.0742C101.201 37.0625 96.7672 38.5469 91.0445 38.5273C79.482 38.5273 74.5699 32.3555 76.3082 20.0117L78.8863 1.4082H90.107L87.4117 20.2461C87.0211 23.0391 87.1968 25.0898 87.939 26.3984C88.6812 27.707 89.9996 28.3516 91.8941 28.332C96.0543 28.332 98.5152 25.5586 99.2769 20.0117L101.855 1.4082H113.076Z" fill="white"/>
<path d="M130.448 1.4082L125.35 38H114.129L119.286 1.4082H130.448Z" fill="white"/>
<path d="M151.394 9.61133C149.03 9.61133 147.79 10.2363 147.673 11.4863C147.673 12.1895 147.79 12.6387 148.025 12.834C148.278 13.0098 148.542 13.1562 148.816 13.2734C149.089 13.3906 149.353 13.5078 149.607 13.625C149.88 13.7227 150.251 13.8398 150.72 13.9766C151.208 14.1133 151.677 14.2402 152.126 14.3574C152.595 14.4746 153.21 14.6504 153.972 14.8848C154.734 15.0996 155.456 15.3047 156.14 15.5C159.851 16.6523 162.409 18.0586 163.816 19.7188C165.222 21.3789 165.827 23.8203 165.632 27.043C165.437 30.2656 163.806 32.9902 160.739 35.2168C157.673 37.4238 153.523 38.5273 148.288 38.5273C143.073 38.5273 137.409 36.8672 131.296 33.5469L135.866 25.2852C141.257 27.9609 145.818 29.2988 149.548 29.2988C152.185 29.2988 153.503 28.6152 153.503 27.248C153.542 26.5645 153.073 25.9785 152.097 25.4902C151.12 24.9824 148.786 24.1621 145.095 23.0293C141.423 21.877 138.903 20.5391 137.536 19.0156C136.169 17.4727 135.583 15.0703 135.778 11.8086C135.993 8.54688 137.585 5.90039 140.554 3.86914C143.542 1.81836 147.214 0.792969 151.57 0.792969C154.402 0.792969 157.009 1.01758 159.392 1.4668C161.794 1.91602 164.714 2.73633 168.152 3.92773L164.607 12.1309C159.001 10.4512 154.597 9.61133 151.394 9.61133Z" fill="white"/>
<path d="M184.146 10.9883L183.531 15.4414H197.682L196.422 24.2012H182.271L181.686 28.5664H198.824L197.506 38H169.264L174.42 1.4082H202.193L200.875 10.9883H184.146Z" fill="white"/>
<path d="M222.173 19.8945C225.688 19.8945 227.505 18.1465 227.622 14.6504C227.7 13.4199 227.319 12.4629 226.479 11.7793C225.639 11.0957 224.38 10.7539 222.7 10.7539H218.159L216.899 19.8945H222.173ZM223.491 1.4082C229.057 1.4082 233.042 2.50195 235.444 4.68945C237.866 6.85742 238.94 10.0996 238.667 14.416C238.393 20.373 235.893 24.5527 231.167 26.9551L236.938 37.1504L236.704 38H224.809L220.298 28.7715L215.639 28.8301L214.38 38H203.159L208.315 1.4082H223.491Z" fill="white"/>
</svg>
