<svg width="348" height="38" viewBox="0 0 348 38" fill="none" xmlns="http://www.w3.org/2000/svg">
<path d="M27.4297 22L25.7598 13.2402C25.4863 11.873 25.291 10.6133 25.1738 9.46094H25.0859C24.8516 10.2617 24.3145 11.5996 23.4746 13.4746L19.4609 22H27.4297ZM29.1875 31.5508H14.8906L12.3125 37H0.330078L18.6113 0.408203H33.9336L41.9023 37H30.2129L29.1875 31.5508Z" fill="white"/>
<path d="M61.3543 27.4492C67.9949 27.4492 71.5594 23.9922 72.0477 17.0781C72.282 14.5977 71.7937 12.7812 70.5828 11.6289C69.3719 10.4766 67.3406 9.89062 64.4891 9.87109H60.9441L58.4832 27.4492H61.3543ZM65.4852 0.408203C71.5984 0.408203 76.1883 1.82422 79.2547 4.65625C82.3211 7.48828 83.6785 11.4727 83.327 16.6094C82.8777 22.9375 80.7 27.918 76.7937 31.5508C72.8875 35.1836 67.702 37 61.2371 37H45.9441L51.1004 0.408203H65.4852Z" fill="white"/>
<path d="M108.287 37H94.8688L86.402 0.408203H98.7652L102.193 21.4727C102.427 22.625 102.603 23.8652 102.72 25.1934C102.72 25.1543 103.296 23.7285 104.449 20.916L114.351 0.408203H126.421L108.287 37Z" fill="white"/>
<path d="M139.75 9.98828L139.135 14.4414H153.286L152.026 23.2012H137.875L137.289 27.5664H154.428L153.11 37H124.868L130.024 0.408203H157.797L156.479 9.98828H139.75Z" fill="white"/>
<path d="M193.861 37H183.841L172.503 18.4551L169.984 37H158.763L163.919 0.408203H173.939L185.277 18.9531C185.355 17.8398 185.472 16.7363 185.628 15.6426L187.796 0.408203H198.958L193.861 37Z" fill="white"/>
<path d="M235.314 10.5449H224.445L220.725 37H209.562L213.283 10.5449H202.414L203.85 0.408203H236.75L235.314 10.5449Z" fill="white"/>
<path d="M275.333 0.408203L272.638 19.2461C271.759 25.4766 269.747 30.0859 266.602 33.0742C263.458 36.0625 259.024 37.5469 253.302 37.5273C241.739 37.5273 236.827 31.3555 238.565 19.0117L241.143 0.408203H252.364L249.669 19.2461C249.278 22.0391 249.454 24.0898 250.196 25.3984C250.938 26.707 252.257 27.3516 254.151 27.332C258.311 27.332 260.772 24.5586 261.534 19.0117L264.112 0.408203H275.333Z" fill="white"/>
<path d="M295.4 18.8945C298.916 18.8945 300.732 17.1465 300.849 13.6504C300.927 12.4199 300.546 11.4629 299.707 10.7793C298.867 10.0957 297.607 9.75391 295.927 9.75391H291.386L290.127 18.8945H295.4ZM296.718 0.408203C302.285 0.408203 306.269 1.50195 308.671 3.68945C311.093 5.85742 312.168 9.09961 311.894 13.416C311.621 19.373 309.121 23.5527 304.394 25.9551L310.166 36.1504L309.931 37H298.037L293.525 27.7715L288.867 27.8301L287.607 37H276.386L281.543 0.408203H296.718Z" fill="white"/>
<path d="M329.442 9.98828L328.827 14.4414H342.977L341.717 23.2012H327.567L326.981 27.5664H344.12L342.801 37H314.559L319.715 0.408203H347.489L346.17 9.98828H329.442Z" fill="white"/>
</svg>
