<svg width="304" height="39" viewBox="0 0 304 39" fill="none" xmlns="http://www.w3.org/2000/svg">
<path d="M19.9219 19.8945C23.4375 19.8945 25.2539 18.1465 25.3711 14.6504C25.4492 13.4199 25.0684 12.4629 24.2285 11.7793C23.3887 11.0957 22.1289 10.7539 20.4492 10.7539H15.9082L14.6484 19.8945H19.9219ZM21.2402 1.4082C26.8066 1.4082 30.791 2.50195 33.1934 4.68945C35.6152 6.85742 36.6895 10.0996 36.416 14.416C36.1426 20.373 33.6426 24.5527 28.916 26.9551L34.6875 37.1504L34.4531 38H22.5586L18.0469 28.7715L13.3887 28.8301L12.1289 38H0.908203L6.06445 1.4082H21.2402Z" fill="white"/>
<path d="M65.1258 12.9805C64.0516 11.5352 62.3035 10.8125 59.8816 10.8125C57.4598 10.8125 55.4773 11.5938 53.9344 13.1562C52.3914 14.7188 51.4441 16.9648 51.0926 19.8945C50.448 25.5977 52.5477 28.4492 57.3914 28.4492C59.7938 28.4492 61.7859 27.6582 63.368 26.0762C64.95 24.4941 65.907 22.2773 66.2391 19.4258C66.5711 16.5742 66.2 14.4258 65.1258 12.9805ZM46.6395 5.59766C50.3309 2.39453 55.1648 0.792969 61.1414 0.792969C67.118 0.792969 71.5516 2.45312 74.4422 5.77344C77.3328 9.09375 78.3582 13.7617 77.5184 19.7773C76.659 25.793 74.3934 30.4316 70.7215 33.6934C67.0301 36.916 62.1961 38.5273 56.2195 38.5273C50.243 38.5273 45.7996 36.8574 42.8895 33.5176C39.9988 30.1777 38.9832 25.4902 39.8426 19.4551C40.702 13.4199 42.9676 8.80078 46.6395 5.59766Z" fill="white"/>
<path d="M102.771 23L101.101 14.2402C100.828 12.873 100.632 11.6133 100.515 10.4609H100.427C100.193 11.2617 99.6559 12.5996 98.816 14.4746L94.8023 23H102.771ZM104.529 32.5508H90.232L87.6539 38H75.6715L93.9527 1.4082H109.275L117.244 38H105.554L104.529 32.5508Z" fill="white"/>
<path d="M136.696 28.4492C143.336 28.4492 146.901 24.9922 147.389 18.0781C147.623 15.5977 147.135 13.7812 145.924 12.6289C144.713 11.4766 142.682 10.8906 139.83 10.8711H136.286L133.825 28.4492H136.696ZM140.827 1.4082C146.94 1.4082 151.53 2.82422 154.596 5.65625C157.663 8.48828 159.02 12.4727 158.668 17.6094C158.219 23.9375 156.041 28.918 152.135 32.5508C148.229 36.1836 143.043 38 136.579 38H121.286L126.442 1.4082H140.827Z" fill="white"/>
<path d="M180.991 9.61133C178.628 9.61133 177.388 10.2363 177.271 11.4863C177.271 12.1895 177.388 12.6387 177.622 12.834C177.876 13.0098 178.14 13.1562 178.413 13.2734C178.687 13.3906 178.95 13.5078 179.204 13.625C179.478 13.7227 179.849 13.8398 180.318 13.9766C180.806 14.1133 181.275 14.2402 181.724 14.3574C182.193 14.4746 182.808 14.6504 183.57 14.8848C184.331 15.0996 185.054 15.3047 185.738 15.5C189.448 16.6523 192.007 18.0586 193.413 19.7188C194.82 21.3789 195.425 23.8203 195.23 27.043C195.034 30.2656 193.404 32.9902 190.337 35.2168C187.271 37.4238 183.12 38.5273 177.886 38.5273C172.671 38.5273 167.007 36.8672 160.894 33.5469L165.464 25.2852C170.855 27.9609 175.415 29.2988 179.146 29.2988C181.782 29.2988 183.101 28.6152 183.101 27.248C183.14 26.5645 182.671 25.9785 181.695 25.4902C180.718 24.9824 178.384 24.1621 174.693 23.0293C171.021 21.877 168.501 20.5391 167.134 19.0156C165.767 17.4727 165.181 15.0703 165.376 11.8086C165.591 8.54688 167.183 5.90039 170.152 3.86914C173.14 1.81836 176.812 0.792969 181.167 0.792969C183.999 0.792969 186.607 1.01758 188.989 1.4668C191.392 1.91602 194.312 2.73633 197.749 3.92773L194.204 12.1309C188.599 10.4512 184.195 9.61133 180.991 9.61133Z" fill="white"/>
<path d="M233.08 11.5449H222.211L218.49 38H207.328L211.049 11.5449H200.18L201.615 1.4082H234.516L233.08 11.5449Z" fill="white"/>
<path d="M248.753 10.9883L248.137 15.4414H262.288L261.028 24.2012H246.878L246.292 28.5664H263.43L262.112 38H233.87L239.026 1.4082H266.8L265.481 10.9883H248.753Z" fill="white"/>
<path d="M286.779 19.8945C290.295 19.8945 292.111 18.1465 292.228 14.6504C292.306 13.4199 291.925 12.4629 291.086 11.7793C290.246 11.0957 288.986 10.7539 287.306 10.7539H282.765L281.505 19.8945H286.779ZM288.097 1.4082C293.664 1.4082 297.648 2.50195 300.05 4.68945C302.472 6.85742 303.546 10.0996 303.273 14.416C303 20.373 300.5 24.5527 295.773 26.9551L301.545 37.1504L301.31 38H289.416L284.904 28.7715L280.246 28.8301L278.986 38H267.765L272.921 1.4082H288.097Z" fill="white"/>
</svg>
