<svg width="223" height="32" viewBox="0 0 223 32" fill="none" xmlns="http://www.w3.org/2000/svg">
<g id="Vector">
<path d="M68.9197 15.867L77.0083 30.9141H84.9197L68.9197 1.10805L52.9197 30.9141H60.8753L68.9197 15.867Z" fill="#283400"/>
<path d="M42.6593 23.9335L42.6814 1.06373H35.6787V30.9141H49.1745L52.9197 23.9335H42.6593Z" fill="#283400"/>
<path d="M16.0222 1.53538e-05C12.8567 -0.00436892 9.76111 0.930286 7.12701 2.68572C4.49291 4.44116 2.4387 6.93848 1.2243 9.86171C0.00990379 12.7849 -0.310113 16.0027 0.304745 19.1078C0.919604 22.213 2.44171 25.066 4.67846 27.3059C6.91522 29.5457 9.7661 31.0718 12.8704 31.6909C15.9747 32.3101 19.1929 31.9945 22.1178 30.7842C25.0427 29.5738 27.5429 27.5231 29.302 24.8914C31.0611 22.2598 32 19.1655 32 16C32 11.7604 30.3173 7.69408 27.3215 4.69413C24.3258 1.69419 20.2618 0.00588741 16.0222 1.53538e-05ZM16.0222 24.6205C14.3163 24.6249 12.6474 24.123 11.2268 23.1785C9.8063 22.2339 8.69795 20.8891 8.04208 19.3143C7.38622 17.7395 7.21234 16.0055 7.54245 14.3319C7.87257 12.6582 8.69184 11.1201 9.89655 9.91228C11.1013 8.70446 12.6372 7.88124 14.3101 7.54681C15.9829 7.21239 17.7173 7.3818 19.2938 8.03361C20.8703 8.68542 22.2179 9.79032 23.1661 11.2084C24.1143 12.6265 24.6205 14.2941 24.6205 16C24.6146 18.2845 23.7045 20.4738 22.0892 22.0892C20.4738 23.7046 18.2845 24.6147 16 24.6205H16.0222Z" fill="#283400"/>
<path d="M115.812 4.91968C112.757 3.42483 109.395 2.66589 105.994 2.70362C101.873 2.70362 99.3462 5.09697 99.3462 7.80057C99.3462 11.4128 101.341 12.4765 108.033 14.7369C114.726 16.9972 117.717 19.169 117.717 23.6011C117.717 29.4294 113.174 31.4682 108.188 31.4682C103.576 31.5052 99.1082 29.8584 95.6232 26.8366L96.687 25.1745C99.8655 27.9374 103.933 29.4635 108.144 29.4737C113.019 29.4737 115.457 27.4571 115.457 23.8449C115.457 20.2327 113.618 18.8144 106.593 16.4211C100.277 14.3158 97.1966 13.0526 97.1966 7.91137C97.1966 3.76733 100.676 0.731318 106.061 0.731318C109.718 0.721152 113.328 1.55537 116.609 3.16899L115.812 4.91968Z" fill="#283400"/>
<path d="M123.191 31.0028V29.097H131.878V3.92245C129.178 5.13014 126.365 6.06552 123.479 6.7147L122.992 5.25209C126.279 4.31201 129.43 2.94879 132.366 1.19669H134.028V29.097H141.274V31.0028H123.191Z" fill="#283400"/>
<path d="M168.288 1.19669C176.066 1.19669 179.922 4.47647 179.922 11.1247C179.922 17.7729 176.066 20.9862 168.399 20.9862H161.263V31.0028H159.047V1.19669H168.288ZM168.288 18.9252C174.604 18.9252 177.773 16.3324 177.728 11.1025C177.684 5.87259 174.604 3.23547 168.244 3.23547H161.263V18.9252H168.288Z" fill="#283400"/>
<path d="M187.856 13.4737C188.33 11.886 189.295 10.4897 190.613 9.48611C191.932 8.48247 193.535 7.92331 195.191 7.88921C196.169 7.87536 197.146 7.92718 198.116 8.04433L197.917 10.0831C196.742 10.0831 195.967 10.0831 195.147 10.0831C191.911 10.0831 189.186 12.2992 187.856 16.7313V31.0914H185.64V8.33242H187.856V13.4737Z" fill="#283400"/>
<path d="M222.36 19.856C222.36 27.1025 218.194 31.446 211.28 31.446C204.366 31.446 200.199 27.0139 200.199 19.856C200.199 12.6981 204.343 7.88921 211.28 7.88921C218.216 7.88921 222.36 12.3435 222.36 19.856ZM220.144 19.856C220.144 13.518 216.776 9.75071 211.147 9.75071C205.518 9.75071 202.105 13.518 202.105 19.856C202.105 26.1939 205.429 29.5845 211.102 29.5845C216.776 29.5845 220.255 25.9723 220.255 19.856H220.144Z" fill="#283400"/>
</g>
</svg>
