<svg width="194" height="32" viewBox="0 0 194 32" fill="none" xmlns="http://www.w3.org/2000/svg">
<path d="M67.4346 15.653L75.349 30.4972H83.0899L67.4346 1.0931L51.7794 30.4972H59.5636L67.4346 15.653Z" fill="#283400"/>
<path d="M41.7401 23.6107L41.7618 1.04938H34.9099V30.4972H48.1149L51.7794 23.6107H41.7401Z" fill="#283400"/>
<path d="M15.6769 1.51467e-05C12.5797 -0.00430999 9.55079 0.917739 6.97345 2.6495C4.3961 4.38126 2.38616 6.8449 1.19792 9.7287C0.00969036 12.6125 -0.303431 15.7869 0.298179 18.8501C0.899789 21.9134 2.38909 24.7279 4.57765 26.9376C6.76621 29.1472 9.55567 30.6527 12.5931 31.2635C15.6305 31.8743 18.7793 31.563 21.6412 30.369C24.5031 29.175 26.9494 27.1519 28.6706 24.5557C30.3918 21.9595 31.3105 18.907 31.3105 15.7842C31.3105 11.6018 29.6641 7.5903 26.7328 4.63082C23.8016 1.67134 19.8252 0.00580801 15.6769 1.51467e-05ZM15.6769 24.2884C14.0078 24.2928 12.3749 23.7977 10.9849 22.8659C9.59501 21.934 8.51053 20.6074 7.8688 19.0538C7.22707 17.5003 7.05693 15.7897 7.37994 14.1386C7.70294 12.4875 8.50456 10.9701 9.68331 9.77859C10.8621 8.58706 12.3649 7.77494 14.0017 7.44503C15.6385 7.11511 17.3355 7.28224 18.8781 7.92526C20.4206 8.56828 21.7392 9.65827 22.667 11.0573C23.5947 12.4562 24.09 14.1013 24.09 15.7842C24.0843 18.0379 23.1938 20.1976 21.6132 21.7912C20.0326 23.3848 17.8905 24.2827 15.6552 24.2884H15.6769Z" fill="#283400"/>
<path d="M104.351 3.08285C102.353 3.08285 100.738 3.58638 99.5076 4.59345C98.2767 5.58453 97.6613 6.87133 97.6613 8.45386C97.6613 10.0204 98.2368 11.2353 99.3877 12.0985C100.539 12.9617 102.896 13.9847 106.461 15.1676C110.026 16.3505 112.528 17.5814 113.966 18.8602C115.421 20.123 116.148 21.9933 116.148 24.471C116.148 26.9487 115.245 28.8269 113.439 30.1058C111.632 31.3686 109.45 32 106.893 32C101.714 32 97.3976 30.4494 93.9448 27.3483L95.0238 25.6699C98.3007 28.5472 102.129 29.9859 106.509 29.9859C111.417 29.9859 113.87 28.1076 113.87 24.3511C113.87 22.5128 113.271 21.1141 112.072 20.155C110.889 19.1799 108.915 18.2368 106.149 17.3256C103.4 16.4145 101.554 15.7671 100.611 15.3834C99.6674 14.9838 98.7323 14.4563 97.8052 13.8009C96.894 13.1455 96.2626 12.3942 95.9109 11.547C95.5752 10.6838 95.4074 9.61279 95.4074 8.33398C95.4074 6.20795 96.2226 4.47356 97.8531 3.13081C99.4996 1.78805 101.666 1.11668 104.351 1.11668C108.204 1.13266 111.736 1.9559 114.949 3.58638L114.23 5.33676C111.225 3.83415 107.932 3.08285 104.351 3.08285Z" fill="#283400"/>
<path d="M139.299 31.5684H121.148V29.6502H129.876V4.35367C127.158 5.56854 124.345 6.50367 121.436 7.15907L120.932 5.69642C124.529 4.60943 127.678 3.2507 130.379 1.62021H132.034V29.6502H139.299V31.5684Z" fill="#283400"/>
<path d="M167.773 31.5684H165.04L155.688 18.4526C155.289 17.8931 155.049 17.5334 154.969 17.3736C154.873 17.5334 154.625 17.8931 154.226 18.4526L144.85 31.5684H142.141L153.195 16.1507L142.549 1.62021H145.282L154.226 13.7529C154.513 14.1845 154.761 14.5602 154.969 14.8799C155.161 14.5602 155.401 14.1845 155.688 13.7529L164.632 1.62021H167.342L156.671 16.1507L167.773 31.5684Z" fill="#283400"/>
<path d="M185.219 16.8992V25.6271H183.492V16.8992H174.788V15.1728H183.492V6.37294L185.219 6.42089V15.1728H193.995V16.8992H185.219Z" fill="#283400"/>
</svg>
