<svg width="16" height="16" viewBox="0 0 16 16" fill="none" xmlns="http://www.w3.org/2000/svg">
<path fill-rule="evenodd" clip-rule="evenodd" d="M11.4445 7.75599C10.3974 6.80163 9.32357 5.31093 9.32357 3.22266H10.8355C10.8355 4.75161 11.6549 5.87976 12.5722 6.66843C13.0265 7.0591 13.4847 7.34747 13.8306 7.53813C14.0026 7.63296 14.1446 7.70232 14.2411 7.74702C14.2893 7.76935 14.3261 7.78543 14.3493 7.7954L14.3739 7.80574L14.3768 7.80693L14.3782 7.80747L16 8.45109L14.4503 9.27108L14.4444 9.27427L14.4175 9.28905C14.3926 9.30287 14.3542 9.32455 14.3042 9.35382C14.2042 9.41242 14.0584 9.50111 13.882 9.61772C13.5278 9.85199 13.0588 10.1937 12.5933 10.6247C11.6305 11.5162 10.8355 12.6465 10.8355 13.8893H9.32357C9.32357 11.9322 10.5445 10.3958 11.5976 9.42059C11.6211 9.39885 11.6446 9.37732 11.6681 9.35599H0V7.75599H11.4445Z" fill="white"/>
</svg>
