<svg width="88" height="24" viewBox="0 0 88 24" fill="none" xmlns="http://www.w3.org/2000/svg">
<path d="M7.70582 2.3834C6.22621 2.3834 5.03069 2.7598 4.11925 3.51259C3.20781 4.25344 2.75208 5.21534 2.75208 6.3983C2.75208 7.56931 3.17821 8.47744 4.03047 9.12269C4.88273 9.76794 6.62866 10.5327 9.26829 11.4169C11.9079 12.3011 13.7604 13.2212 14.8257 14.1771C15.9029 15.1211 16.4415 16.5192 16.4415 18.3713C16.4415 20.2234 15.7727 21.6274 14.4351 22.5833C13.0975 23.5273 11.4818 23.9993 9.58788 23.9993C5.75273 23.9993 2.55677 22.8402 0 20.5221L0.798998 19.2675C3.22556 21.4183 6.06049 22.4937 9.30379 22.4937C12.9377 22.4937 14.7547 21.0897 14.7547 18.2817C14.7547 16.9075 14.3108 15.862 13.423 15.145C12.5471 14.4161 11.0853 13.7111 9.03747 13.03C7.00153 12.3489 5.63436 11.865 4.93599 11.5782C4.23761 11.2795 3.54516 10.8852 2.85862 10.3953C2.18392 9.90535 1.71635 9.34374 1.45594 8.71044C1.20737 8.06519 1.08308 7.2646 1.08308 6.30868C1.08308 4.71945 1.68676 3.42297 2.89412 2.41925C4.11332 1.41553 5.71722 0.913668 7.70582 0.913668C10.5585 0.925617 13.1745 1.54099 15.5537 2.7598L15.021 4.06823C12.7957 2.94501 10.3573 2.3834 7.70582 2.3834Z" fill="white"/>
<path d="M33.9482 23.6767H20.5074V22.2428H26.9704V3.33336C24.9581 4.24149 22.8748 4.94051 20.7205 5.43042L20.3476 4.33708C23.0109 3.52454 25.3428 2.50887 27.3432 1.29006H28.5683V22.2428H33.9482V23.6767Z" fill="white"/>
<path d="M61.1599 15.6205L56.3162 4.6283C55.8356 3.48367 55.4905 2.60031 55.2809 1.97823C55.1823 2.26439 54.8557 3.14774 54.3011 4.6283L49.4205 15.6205H61.1599ZM48.7734 17.2442L45.7785 24H43.9297L54.2272 0.690513H56.3902L66.6876 24H64.8204L61.8439 17.2442H48.7734Z" fill="white"/>
<path d="M71.7161 24H70.0523V6.27061H71.7161V24ZM69.7565 1.06376C69.7565 0.354588 70.1324 0 70.8842 0C71.636 0 72.0181 0.354588 72.0304 1.06376C72.0428 1.39969 71.938 1.66719 71.7161 1.86625C71.4943 2.06532 71.217 2.16485 70.8842 2.16485C70.5515 2.16485 70.2803 2.06532 70.0708 1.86625C69.8612 1.66719 69.7565 1.39969 69.7565 1.06376Z" fill="white"/>
<path d="M79.7027 6.27061V10.283C80.0847 9.014 80.8119 7.9689 81.8841 7.14774C82.9564 6.32659 84.0164 5.91602 85.064 5.91602C86.1116 5.91602 86.9743 5.95334 87.6522 6.02799L87.5043 7.63297C86.9004 7.5832 86.1794 7.55832 85.3413 7.55832C84.0595 7.55832 82.9256 8.00622 81.9396 8.90202C80.9536 9.79782 80.208 11.0855 79.7027 12.7652V24H78.0388V6.27061H79.7027Z" fill="white"/>
</svg>
